<?xml version="1.0" encoding="UTF-8" standalone="no"?>
<svg
   width="256"
   height="256"
   version="1.1"
   id="svg18"
   sodipodi:docname="icon.svg"
   xml:space="preserve"
   inkscape:version="1.2.2 (732a01da63, 2022-12-09)"
   xmlns:inkscape="http://www.inkscape.org/namespaces/inkscape"
   xmlns:sodipodi="http://sodipodi.sourceforge.net/DTD/sodipodi-0.dtd"
   xmlns:xlink="http://www.w3.org/1999/xlink"
   xmlns="http://www.w3.org/2000/svg"
   xmlns:svg="http://www.w3.org/2000/svg"><defs
     id="defs22"><pattern
       inkscape:collect="always"
       xlink:href="#pattern6974"
       id="pattern1845"
       patternTransform="matrix(3.3986243,0,0,22.334892,-355.76083,83.94504)" /><pattern
       inkscape:collect="always"
       xlink:href="#pattern6974"
       id="pattern7072"
       patternTransform="matrix(-2.1380625,0,0,34.24634,-202.76083,83.94504)" /><pattern
       inkscape:collect="always"
       xlink:href="#Strips1_1"
       id="pattern6924"
       patternTransform="matrix(10.022862,0,0,10.022862,-912.25065,-372.65654)" /><pattern
       inkscape:isstock="true"
       inkscape:stockid="Stripes 1:1"
       id="Strips1_1"
       patternTransform="translate(0,0) scale(10,10)"
       height="1"
       width="2"
       patternUnits="userSpaceOnUse"
       inkscape:collect="always"><rect
         id="rect1947"
         height="2"
         width="1"
         y="-0.5"
         x="0"
         style="fill:black;stroke:none" /></pattern><linearGradient
       id="linearGradient4210"><stop
         id="stop4212"
         style="stop-color:#000000"
         offset="0" /><stop
         id="stop4234"
         style="stop-color:#000000"
         offset=".046844" /><stop
         id="stop4214"
         style="stop-color:#ffffff"
         offset=".11671" /><stop
         id="stop4216"
         style="stop-color:#000000"
         offset="0.192" /><stop
         id="stop4236"
         style="stop-color:#000000"
         offset=".23979" /><stop
         id="stop4218"
         style="stop-color:#ffffff"
         offset=".31315" /><stop
         id="stop4220"
         style="stop-color:#010101"
         offset=".39347" /><stop
         id="stop4238"
         style="stop-color:#000000"
         offset=".44833" /><stop
         id="stop4222"
         style="stop-color:#ffffff"
         offset=".52621" /><stop
         id="stop4224"
         style="stop-color:#000000"
         offset=".60357" /><stop
         id="stop4240"
         style="stop-color:#000000"
         offset=".65357" /><stop
         id="stop4226"
         style="stop-color:#ffffff"
         offset=".73170" /><stop
         id="stop4228"
         style="stop-color:#000000"
         offset=".80949" /><stop
         id="stop4242"
         style="stop-color:#000000"
         offset=".85804" /><stop
         id="stop4230"
         style="stop-color:#ffffff"
         offset=".92704" /><stop
         id="stop4232"
         style="stop-color:#000000"
         offset="1" /></linearGradient><pattern
       inkscape:collect="always"
       xlink:href="#Strips1_1-4"
       id="pattern6974"
       patternTransform="matrix(3.3986243,0,0,22.334892,555.43507,454.95966)" /><pattern
       inkscape:isstock="true"
       inkscape:stockid="Stripes 1:1"
       id="Strips1_1-4"
       patternTransform="translate(0,0) scale(10,10)"
       height="1"
       width="2"
       patternUnits="userSpaceOnUse"
       inkscape:collect="always"><rect
         id="rect1947-3"
         height="2"
         width="1"
         y="-0.5"
         x="0"
         style="fill:black;stroke:none" /></pattern><pattern
       inkscape:collect="always"
       xlink:href="#Strips1_1-0"
       id="pattern6489"
       patternTransform="matrix(-0.96284301,0,0,-1.4942687,-20.82723,192.64035)" /><pattern
       inkscape:isstock="true"
       inkscape:stockid="Stripes 1:1"
       id="Strips1_1-0"
       patternTransform="translate(0,0) scale(10,10)"
       height="1"
       width="2"
       patternUnits="userSpaceOnUse"
       inkscape:collect="always"><rect
         id="rect1947-5"
         height="2"
         width="1"
         y="-0.5"
         x="0"
         style="fill:black;stroke:none" /></pattern><pattern
       inkscape:collect="always"
       xlink:href="#Strips1_1-1"
       id="pattern6489-2"
       patternTransform="matrix(0.63580154,0,0,2.2531774,131.4382,192.54666)" /><pattern
       inkscape:isstock="true"
       inkscape:stockid="Stripes 1:1"
       id="Strips1_1-1"
       patternTransform="translate(0,0) scale(10,10)"
       height="1"
       width="2"
       patternUnits="userSpaceOnUse"
       inkscape:collect="always"><rect
         id="rect1947-1"
         height="2"
         width="1"
         y="-0.5"
         x="0"
         style="fill:black;stroke:none" /></pattern></defs><sodipodi:namedview
     id="namedview20"
     pagecolor="#ffffff"
     bordercolor="#000000"
     borderopacity="0.25"
     inkscape:showpageshadow="2"
     inkscape:pageopacity="0.0"
     inkscape:pagecheckerboard="0"
     inkscape:deskcolor="#d1d1d1"
     showgrid="false"
     inkscape:zoom="0.84277344"
     inkscape:cx="-463.3511"
     inkscape:cy="164.93163"
     inkscape:window-width="1920"
     inkscape:window-height="1017"
     inkscape:window-x="-8"
     inkscape:window-y="-8"
     inkscape:window-maximized="1"
     inkscape:current-layer="svg18" /><g
     id="g3262"
     transform="matrix(0.28211729,0,0,0.28211729,148.087,83.738783)"><rect
       style="fill:url(#pattern6489);fill-opacity:1;stroke:none;stroke-width:1.15654;stroke-linejoin:round;stroke-miterlimit:4;stroke-dasharray:none;stroke-opacity:1"
       id="rect5768"
       width="153"
       height="153"
       x="6.6076279"
       y="194.16544"
       inkscape:tile-cx="994.30353"
       inkscape:tile-cy="639.31785"
       inkscape:tile-w="153"
       inkscape:tile-h="153"
       inkscape:tile-x0="917.80353"
       inkscape:tile-y0="562.81785" /><rect
       style="fill:url(#pattern6489-2);fill-opacity:1;stroke:none;stroke-width:1.15654;stroke-linejoin:round;stroke-miterlimit:4;stroke-dasharray:none;stroke-opacity:1"
       id="rect5768-3"
       width="153"
       height="153"
       x="158.87306"
       y="194.07175" /><path
       id="path4816"
       style="fill:#000000;fill-rule:evenodd"
       inkscape:connector-curvature="0"
       d="m 270.1041,118.18538 h 75.847 v 76.329 h -75.847 z" /><path
       id="path4790"
       style="fill:#000000;fill-rule:evenodd"
       inkscape:connector-curvature="0"
       d="m 194.3041,118.18538 h 75.847 v 76.329 h -75.847 z" /><path
       id="path4842"
       inkscape:connector-curvature="0"
       style="fill:#000000;fill-rule:evenodd"
       d="m 380.0041,194.50758 c 0.4123,-4.9387 0.8724,-9.8613 1.125,-14.844 0.3913,-7.7203 0.5938,-15.495 0.5938,-23.312 0,-7.8175 -0.2025,-15.592 -0.5938,-23.312 -0.2526,-4.9824 -0.7127,-9.9051 -1.125,-14.844 h -34.094 v 76.312 z" /><path
       id="path4764"
       style="fill:#000000;fill-rule:evenodd"
       inkscape:connector-curvature="0"
       d="m 118.4041,118.18538 h 75.847 v 76.329 h -75.847 z" /><path
       id="path4712"
       style="fill:#000000;fill-rule:evenodd"
       inkscape:connector-curvature="0"
       d="m -33.2759,118.18538 h 75.847 v 76.329 h -75.847 z" /><path
       id="path4096"
       d="m 42.5741,194.51538 -0.003,-76.329"
       style="fill:none;stroke:#ffffff;stroke-width:1.51"
       inkscape:connector-curvature="0" /><path
       id="path4136"
       style="fill:#ffed47;fill-opacity:1;fill-rule:evenodd"
       inkscape:connector-curvature="0"
       d="m 232.2041,-34.46242 v 76.344 76.312 h 75.844 72.125 c -4.5172,-54.15 -18.518,-105.6 -40.406,-152.66 h -31.719 -75.844 z" /><path
       id="path4111"
       style="fill:#dc263c;fill-opacity:1;fill-rule:evenodd"
       inkscape:connector-curvature="0"
       d="m -374.5759,-34.46462 v 76.344 76.312 h 75.844 75.844 v -76.312 -76.344 h -75.844 z" /><path
       id="path4120"
       d="m -222.8859,-34.46462 v 76.344 76.312 h 75.844 75.844 v -76.312 -76.344 h -75.844 z"
       style="fill:#ff6600;fill-opacity:1;fill-rule:evenodd"
       inkscape:connector-curvature="0" /><path
       id="path4122"
       style="fill:#ff9b00;fill-opacity:1;fill-rule:evenodd"
       inkscape:connector-curvature="0"
       d="m -71.1959,-34.46462 v 76.344 76.312 h 75.844 75.844 v -76.312 -76.344 H 4.6481 Z" /><path
       id="path4124"
       d="m 80.4941,-34.46462 v 76.344 76.312 h 75.844 75.844 v -76.312 -76.344 h -75.844 z"
       style="fill:#ffcc00;fill-opacity:1;fill-rule:evenodd"
       inkscape:connector-curvature="0" /><path
       id="path4141"
       style="fill:#521955;fill-opacity:1;fill-rule:evenodd"
       inkscape:connector-curvature="0"
       d="m -374.5859,-34.47462 v 76.344 76.312 h -75.844 -72.125 c 4.5172,-54.15 18.518,-105.6 40.406,-152.66 h 31.719 75.844 z" /><g
       id="g4276"
       transform="translate(-911.1959,-371.01462)"><path
         id="path4157"
         d="m 802.08,412.85 v 76.344 76.312 76.344 h 75.844 V 565.506 489.194 412.85 Z"
         style="fill:#000000;fill-rule:evenodd;stroke:#ffffff;stroke-width:1.541;stroke-linecap:square"
         inkscape:connector-curvature="0" /><path
         id="path4145"
         d="m 387.04,525 h 905.91"
         style="fill:#000000;fill-rule:evenodd;stroke:#ffffff;stroke-width:1.514;stroke-linecap:square"
         transform="translate(0,2.3622)"
         inkscape:connector-curvature="0" /><path
         id="path4168"
         d="M 840,413.37 V 641.85"
         style="fill:#000000;fill-rule:evenodd;stroke:#ffffff;stroke-width:1.514;stroke-linecap:square"
         inkscape:connector-curvature="0" /></g><g
       id="g4530"
       transform="translate(-911.19638,-368.65242)"><path
         id="path4600"
         d="m 545.42,181.53 c -3.1402,2.7147 -6.3249,5.3882 -9.3889,8.1875 -5.335,4.874 -10.541,9.8769 -15.638,15 -5.0967,5.1231 -10.074,10.356 -14.923,15.719 -2.0542,2.2719 -3.9916,4.6551 -6.0002,6.9688 -2.7325,3.1476 -5.53,6.2454 -8.1764,9.4688 -4.5917,5.5927 -9.0432,11.312 -13.368,17.125 -0.93485,1.2565 -1.7826,2.5772 -2.7047,3.8438 h 24.249 75.453 75.453 v -76.312 h -75.453 -29.503 z"
         style="fill:#000000;fill-rule:evenodd;stroke:#000000;stroke-width:1.541;stroke-linecap:square"
         inkscape:connector-curvature="0" /><path
         id="path4808"
         d="m 1029.6,181.53 v 76.312 h 75.371 75.371 24.223 c -0.9212,-1.2666 -1.7681,-2.5872 -2.7018,-3.8438 -4.3205,-5.8133 -8.7669,-11.532 -13.354,-17.125 -2.6435,-3.2234 -5.4379,-6.3212 -8.1675,-9.4688 -2.0064,-2.3137 -3.9415,-4.6969 -5.9937,-6.9688 -4.8435,-5.3626 -9.8153,-10.596 -14.907,-15.719 -5.0908,-5.1231 -10.292,-10.126 -15.621,-15 -3.0607,-2.7993 -6.242,-5.4728 -9.3787,-8.1875 h -29.471 -75.371 z"
         style="fill:#000000;fill-rule:evenodd;stroke:#000000;stroke-width:1.541;stroke-linecap:square"
         inkscape:connector-curvature="0" /><path
         id="path4407"
         d="m 835.22,72.625 c -103.03,1.082 -205.76,37.235 -289.1,108.44 l 587.97,0.1875 c -85.9,-73.52 -192.58,-109.74 -298.88,-108.62 z m -222.75,108.91 v 76.312 h 455.06 v -76.312 z"
         style="fill:#ffffff;stroke:#ffffff;stroke-width:1.541;stroke-linecap:square"
         inkscape:connector-curvature="0" /><g
         id="g4068"
         transform="matrix(0.83871,0,0,1,76.503,0)"><rect
           id="rect5015"
           style="fill:#000000;fill-rule:evenodd;stroke-width:0"
           transform="scale(-1,1)"
           height="76.334"
           width="62.299"
           y="257.84"
           x="-972.71002" /><rect
           id="rect5017"
           style="fill:#bfbfbf;fill-rule:evenodd;stroke-width:0"
           transform="scale(-1,1)"
           height="76.334"
           width="62.299"
           y="257.84"
           x="-910.40997" /><rect
           id="rect5027"
           style="fill:#bfbfbf;fill-rule:evenodd;stroke-width:0"
           transform="scale(-1,1)"
           height="76.334"
           width="62.299"
           y="257.85001"
           x="-785.81" /><rect
           id="rect5025"
           style="fill:#000000;fill-rule:evenodd;stroke-width:0"
           transform="scale(-1,1)"
           height="76.334"
           width="62.299"
           y="257.85001"
           x="-848.10999" /><rect
           id="rect4048"
           style="fill:#000000;fill-rule:evenodd;stroke-width:0"
           transform="scale(-1,1)"
           height="76.334"
           width="62.299"
           y="257.85001"
           x="-723.51001" /><rect
           id="rect4050"
           style="fill:#bfbfbf;fill-rule:evenodd;stroke-width:0"
           transform="scale(-1,1)"
           height="76.334"
           width="62.299"
           y="257.85001"
           x="-661.21002" /><rect
           id="rect4052"
           style="fill:#bfbfbf;fill-rule:evenodd;stroke-width:0"
           transform="scale(-1,1)"
           height="76.334"
           width="62.299"
           y="257.85001"
           x="-536.60999" /><rect
           id="rect4054"
           style="fill:#000000;fill-rule:evenodd;stroke-width:0"
           transform="scale(-1,1)"
           height="76.334"
           width="62.299"
           y="257.85001"
           x="-598.90997" /><rect
           id="rect4056"
           style="fill:#000000;fill-rule:evenodd;stroke-width:0"
           transform="scale(-1,1)"
           height="76.334"
           width="62.299"
           y="257.84"
           x="-1346.5" /><rect
           id="rect4058"
           style="fill:#bfbfbf;fill-rule:evenodd;stroke-width:0"
           transform="scale(-1,1)"
           height="76.334"
           width="62.299"
           y="257.84"
           x="-1284.2" /><rect
           id="rect4060"
           style="fill:#bfbfbf;fill-rule:evenodd;stroke-width:0"
           transform="scale(-1,1)"
           height="76.334"
           width="62.299"
           y="257.85001"
           x="-1159.6" /><rect
           id="rect4062"
           style="fill:#000000;fill-rule:evenodd;stroke-width:0"
           transform="scale(-1,1)"
           height="76.334"
           width="62.299"
           y="257.85001"
           x="-1221.9" /><rect
           id="rect4064"
           style="fill:#000000;fill-rule:evenodd;stroke-width:0"
           transform="scale(-1,1)"
           height="76.334"
           width="62.299"
           y="257.85001"
           x="-1097.3" /><rect
           id="rect4066"
           style="fill:#bfbfbf;fill-rule:evenodd;stroke-width:0"
           transform="scale(-1,1)"
           height="76.334"
           width="62.299"
           y="257.85001"
           x="-1035" /></g><rect
         id="rect4143"
         style="fill:#000000;fill-rule:evenodd"
         height="78.603996"
         width="5.0030999"
         y="181.53"
         x="647.37" /><path
         id="path4503"
         d="m 688.31,105.19 v 76.312 h 75.844 75.844 75.844 75.844 V 105.19 h -75.844 -75.844 -75.844 z"
         style="fill:#000000;fill-rule:evenodd"
         inkscape:connector-curvature="0" /></g><path
       id="path4770"
       style="fill:#342c40;fill-opacity:1;fill-rule:evenodd"
       inkscape:connector-curvature="0"
       d="m 80.5441,347.16538 h 151.17 v 76.329 h -151.17 z" /><path
       id="path4718"
       style="fill:#6f7c91;fill-rule:evenodd"
       inkscape:connector-curvature="0"
       d="m -71.1959,347.16538 h 151.74 v 76.329 h -151.74 z" /><path
       id="path4614"
       style="fill:#b7c4c8;fill-rule:evenodd"
       inkscape:connector-curvature="0"
       d="m -373.5559,347.16538 h 149.73 v 76.329 h -149.73 z" /><path
       id="path4616"
       style="fill:#ffffff;fill-rule:evenodd"
       inkscape:connector-curvature="0"
       d="m -436.8859,423.50758 c 0.9269,1.2666 1.7791,2.5872 2.7188,3.8438 4.3475,5.8133 8.822,11.532 13.438,17.125 2.6601,3.2234 5.4721,6.3212 8.2188,9.4688 2.019,2.3137 3.9664,4.6969 6.0312,6.9688 4.874,5.3626 9.8769,10.596 15,15.719 5.1231,5.1231 10.356,10.126 15.719,15 3.0799,2.7993 6.2811,5.4728 9.4375,8.1875 h 29.656 38.625 v -76.312 h -38.625 -75.844 -24.375 z" /><path
       id="path4562"
       style="fill:#dfdecf;fill-opacity:1;fill-rule:evenodd"
       d="m -482.0059,347.15758 c 0.85841,1.8449 1.6488,3.7312 2.5312,5.5625 3.1806,6.6007 6.5135,13.113 10,19.531 3.4865,6.4181 7.1232,12.743 10.906,18.969 3.783,6.226 7.7113,12.351 11.781,18.375 3.1903,4.7222 6.5448,9.3131 9.9062,13.906 h 63.33 v -76.344 z"
       sodipodi:nodetypes="csssscccc"
       inkscape:connector-curvature="0" /><path
       id="path4824"
       style="fill:#ffffff;fill-rule:evenodd"
       inkscape:connector-curvature="0"
       d="m 156.1041,423.50758 v 76.312 h 38.125 29.656 c 3.1564,-2.7147 6.3576,-5.3882 9.4375,-8.1875 5.3626,-4.874 10.596,-9.8769 15.719,-15 5.1232,-5.1231 10.126,-10.356 15,-15.719 2.0651,-2.2719 4.0123,-4.6551 6.0313,-6.9688 2.7467,-3.1476 5.5588,-6.2454 8.2187,-9.4688 4.6158,-5.5927 9.0899,-11.312 13.438,-17.125 0.9394,-1.2565 1.7918,-2.5772 2.7187,-3.8438 h -24.375 -75.844 -38.125 z" /><path
       id="path4746"
       style="fill:#000000;fill-rule:evenodd"
       inkscape:connector-curvature="0"
       d="m -297.9959,423.49538 h 454.15 v 76.329 h -454.15 z" /><path
       id="path3430"
       d="m 340.2041,347.16538 c -0.8584,1.8449 -1.6488,3.7312 -2.5312,5.5625 -3.1806,6.6007 -6.5135,13.113 -10,19.531 -3.4866,6.4181 -7.1233,12.743 -10.906,18.969 -3.783,6.226 -7.7113,12.351 -11.781,18.375 -3.1903,4.7222 -6.5449,9.3131 -9.9063,13.906 h -63.33 v -76.344 z"
       sodipodi:nodetypes="csssscccc"
       style="fill:#160b26;fill-opacity:1;fill-rule:evenodd"
       inkscape:connector-curvature="0" /><path
       id="path4411"
       sodipodi:rx="452.95731"
       sodipodi:ry="452.95731"
       style="fill:#ffff00;fill-opacity:1;fill-rule:evenodd"
       sodipodi:type="arc"
       d="m 225.00806,499.03334 a 452.95731,452.95731 0 0 1 -592.35312,0.0474"
       sodipodi:open="true"
       sodipodi:cy="156.34758"
       sodipodi:cx="-71.1959"
       sodipodi:end="2.2834085"
       sodipodi:start="0.85802423"
       sodipodi:arc-type="arc" /><path
       id="path4137"
       inkscape:connector-curvature="0"
       style="fill:#808080;fill-rule:evenodd;stroke:#ffffff;stroke-width:1.541;stroke-linecap:square"
       d="m 339.6041,347.15758 h 6.3437 v -14.031 c -2.0081,4.7327 -4.1808,9.3826 -6.3437,14.031 z" /><path
       id="path4810"
       inkscape:connector-curvature="0"
       style="fill:#bfbfbf;fill-rule:evenodd;stroke-width:0"
       d="m 339.6041,-34.46242 c -0.8584,-1.8449 -1.6488,-3.7312 -2.5313,-5.5625 -3.1805,-6.6007 -6.5134,-13.113 -10,-19.531 -3.4865,-6.4181 -7.1232,-12.743 -10.906,-18.969 -3.783,-6.226 -7.7113,-12.351 -11.781,-18.375 -3.1903,-4.7222 -6.5449,-9.3131 -9.9063,-13.906 h -24.375 v 76.344 h 69.5 z" /><path
       id="path4738"
       style="fill:#000000;fill-rule:evenodd"
       inkscape:connector-curvature="0"
       d="m 42.5741,118.18538 h 75.847 v 76.329 h -75.847 z" /><path
       id="path4688"
       style="fill:#808080;fill-rule:evenodd;stroke:#ffffff;stroke-width:1.541;stroke-linecap:square"
       inkscape:connector-curvature="0"
       d="m -109.1159,194.51538 h 75.847 v 76.329 h -75.847 z" /><path
       id="path4686"
       style="fill:#000000;fill-rule:evenodd;stroke:#ffffff;stroke-width:1.541;stroke-linecap:square"
       inkscape:connector-curvature="0"
       d="m -109.1159,118.18538 h 75.847 v 76.329 h -75.847 z" /><path
       id="path4660"
       style="fill:#000000;fill-rule:evenodd"
       inkscape:connector-curvature="0"
       d="m -184.9659,118.18538 h 75.847 v 76.329 h -75.847 z" /><path
       id="path4666"
       style="fill:#908ca3;fill-opacity:1;fill-rule:evenodd"
       inkscape:connector-curvature="0"
       d="m -223.8259,347.16538 h 152.63 v 76.329 h -152.63 z" /><path
       id="path4634"
       style="fill:#000000;fill-rule:evenodd"
       inkscape:connector-curvature="0"
       d="m -260.8159,118.18538 h 75.847 v 76.329 h -75.847 z" /><path
       id="path4608"
       style="fill:#000000;fill-rule:evenodd"
       inkscape:connector-curvature="0"
       d="m -336.6559,118.18538 h 75.847 v 76.329 h -75.847 z" /><path
       id="path4582"
       style="fill:#000000;fill-rule:evenodd"
       inkscape:connector-curvature="0"
       d="m -412.5059,118.18538 h 75.847 v 76.329 h -75.847 z" /><path
       id="path3305"
       inkscape:connector-curvature="0"
       style="fill:#808080;fill-rule:evenodd;stroke:#ffffff;stroke-width:1.541;stroke-linecap:square"
       d="m -488.3559,333.12758 v 14.031 h 6.3438 c -2.1629,-4.6486 -4.3356,-9.2986 -6.3438,-14.031 z" /><path
       id="path4556"
       style="fill:#000000;fill-rule:evenodd"
       inkscape:connector-curvature="0"
       d="m -488.3559,118.18538 h 75.847 v 76.329 h -75.847 z" /><path
       id="path4550"
       inkscape:connector-curvature="0"
       style="fill:#000000;fill-rule:evenodd;stroke-width:0"
       d="m -436.8859,-110.81242 c -3.3614,4.5932 -6.716,9.184 -9.9062,13.906 -4.07,6.0244 -7.9982,12.149 -11.781,18.375 -3.783,6.226 -7.4197,12.551 -10.906,18.969 -3.4865,6.4181 -6.8194,12.931 -10,19.531 -0.88243,1.8313 -1.6728,3.7176 -2.5312,5.5625 h 69.5 v -76.344 h -24.375 z" /><path
       id="path4560"
       style="fill:#000000;fill-rule:evenodd"
       d="m -522.4359,193.44758 c 0.22656,2.7138 0.3508,6.5087 0.625,9.2087 0.7732,7.6136 1.7231,15.159 2.8687,22.656 1.1456,7.4973 2.4916,14.941 4,22.312 1.5084,7.3716 3.2007,14.67 5.0625,21.906 0.11373,0.44202 0.25997,0.871 0.375,1.3125 1.7681,6.7863 3.6477,13.529 5.7188,20.188 2.2058,7.0917 4.5848,14.125 7.125,21.062 2.5402,6.9375 5.2286,13.789 8.0938,20.562 0.0673,0.15907 0.15129,0.30978 0.21875,0.46875 2.0082,4.7327 4.1808,9.3826 6.3438,14.031 h 32.25 v -76.312 h -0.0937 v -77.396 h -38.5 z"
       sodipodi:nodetypes="csssssssscccccccc"
       inkscape:connector-curvature="0" /><path
       id="path4530"
       style="fill:#000000;fill-rule:evenodd"
       d="m -522.4459,118.18758 c -0.4123,4.9387 -0.87244,9.8613 -1.125,14.844 -0.39134,7.7203 -0.59375,15.495 -0.59375,23.312 0,7.8175 0.20241,15.592 0.59375,23.312 0.25256,4.9824 0.7127,9.9051 1.125,14.844 h 34.094 v -76.312 z"
       sodipodi:nodetypes="cssscccc"
       inkscape:connector-curvature="0" /><path
       id="path4164"
       style="fill:#000000;fill-rule:evenodd;stroke:#ffffff;stroke-width:1.514;stroke-linecap:square"
       inkscape:connector-curvature="0"
       d="m -109.1159,156.33538 h 75.844" /><path
       id="path4084"
       style="fill:none;stroke:#ffffff;stroke-width:1.51"
       inkscape:connector-curvature="0"
       d="m -488.3559,193.44758 -0.003,-75.268" /><path
       id="path4086"
       d="m -412.5059,194.51538 -0.003,-76.329"
       style="fill:none;stroke:#ffffff;stroke-width:1.51"
       inkscape:connector-curvature="0" /><path
       id="path4088"
       d="m -336.6559,194.51538 -0.003,-76.329"
       style="fill:none;stroke:#ffffff;stroke-width:1.51"
       inkscape:connector-curvature="0" /><path
       id="path4090"
       style="fill:none;stroke:#ffffff;stroke-width:1.51"
       inkscape:connector-curvature="0"
       d="m -260.8059,194.51538 -0.003,-76.329" /><path
       id="path4092"
       style="fill:none;stroke:#ffffff;stroke-width:1.51"
       inkscape:connector-curvature="0"
       d="m -184.9659,194.51538 -0.003,-76.329" /><path
       id="path4094"
       d="m -109.1159,194.51538 -0.003,-76.329"
       style="fill:none;stroke:#ffffff;stroke-width:1.51"
       inkscape:connector-curvature="0" /><path
       id="path4099"
       style="fill:none;stroke:#ffffff;stroke-width:1.51"
       inkscape:connector-curvature="0"
       d="m 118.4041,194.51538 v -76.329" /><path
       id="path4101"
       style="fill:none;stroke:#ffffff;stroke-width:1.51"
       inkscape:connector-curvature="0"
       d="m 194.3041,194.51538 v -76.329" /><path
       id="path4104"
       d="m 270.1041,194.51538 v -76.329"
       style="fill:none;stroke:#ffffff;stroke-width:1.51"
       inkscape:connector-curvature="0" /><path
       id="path4106"
       d="m 346.0041,194.51538 v -76.329"
       style="fill:none;stroke:#ffffff;stroke-width:1.51"
       inkscape:connector-curvature="0" /><path
       id="path4110"
       d="m 380.1041,193.45538 c -0.2266,2.7138 -0.3508,6.5087 -0.625,9.2087 -0.7732,7.6136 -1.7232,15.159 -2.8687,22.656 -1.1456,7.4973 -2.4916,14.941 -4.0001,22.312 -1.5084,7.3716 -3.2006,14.67 -5.0625,21.906 -0.1137,0.44202 -0.2599,0.871 -0.375,1.3125 -1.7681,6.7863 -3.6477,13.529 -5.7187,20.188 -2.2058,7.0917 -4.5848,14.125 -7.125,21.062 -2.5402,6.9375 -5.2286,13.789 -8.0938,20.562 -0.067,0.15907 -0.1512,0.30978 -0.2187,0.46875 -2.0082,4.7327 -4.1808,9.3826 -6.3438,14.031 h -32.25 v -76.312 h 0.094 v -77.396 h 38.5 z"
       sodipodi:nodetypes="csssssssscccccccc"
       style="fill:#000000;fill-rule:evenodd"
       inkscape:connector-curvature="0" /><rect
       style="fill:url(#pattern6924);fill-opacity:1;stroke-width:1.00229"
       id="rect6920"
       width="153"
       height="153"
       x="-449.84824"
       y="194.16544"
       inkscape:tile-cx="537.84766"
       inkscape:tile-cy="639.31785"
       inkscape:tile-w="153"
       inkscape:tile-h="153"
       inkscape:tile-x0="461.34766"
       inkscape:tile-y0="562.81785" /><use
       x="0"
       y="0"
       inkscape:tiled-clone-of="#rect6920"
       xlink:href="#rect6920"
       id="use6984"
       inkscape:tile-cx="537.84766"
       inkscape:tile-cy="639.31785"
       inkscape:tile-w="153"
       inkscape:tile-h="153"
       inkscape:tile-x0="461.34766"
       inkscape:tile-y0="562.81785" /><use
       x="0"
       y="0"
       inkscape:tiled-clone-of="#use6984"
       xlink:href="#use6984"
       id="use7002"
       inkscape:tile-cx="537.84766"
       inkscape:tile-cy="639.31785"
       inkscape:tile-w="153"
       inkscape:tile-h="153"
       inkscape:tile-x0="461.34766"
       inkscape:tile-y0="562.81785" /><use
       x="0"
       y="0"
       inkscape:tiled-clone-of="#use7002"
       xlink:href="#use7002"
       id="use7008"
       inkscape:tile-cx="537.84766"
       inkscape:tile-cy="639.31785"
       inkscape:tile-w="153"
       inkscape:tile-h="153"
       inkscape:tile-x0="461.34766"
       inkscape:tile-y0="562.81785" /><use
       x="0"
       y="0"
       inkscape:tiled-clone-of="#use7008"
       xlink:href="#use7008"
       id="use7022"
       inkscape:tile-cx="537.84766"
       inkscape:tile-cy="639.31785"
       inkscape:tile-w="153"
       inkscape:tile-h="153"
       inkscape:tile-x0="461.34766"
       inkscape:tile-y0="562.81785" /><use
       x="0"
       y="0"
       inkscape:tiled-clone-of="#use7022"
       xlink:href="#use7022"
       id="use7050" /><rect
       style="fill:url(#pattern1845);fill-opacity:1;stroke-width:0.334026"
       id="rect6968"
       width="153"
       height="153"
       x="-299.39236"
       y="194.16544"
       inkscape:tile-cx="688.30353"
       inkscape:tile-cy="639.31785"
       inkscape:tile-w="153"
       inkscape:tile-h="153"
       inkscape:tile-x0="611.80353"
       inkscape:tile-y0="562.81785" /><use
       x="0"
       y="0"
       inkscape:tiled-clone-of="#rect6968"
       xlink:href="#rect6968"
       id="use7066" /><rect
       inkscape:tile-y0="562.81785"
       inkscape:tile-x0="764.80353"
       y="194.16544"
       x="-146.39238"
       height="153"
       width="153"
       id="use7068"
       style="fill:url(#pattern7072);fill-opacity:1;stroke-width:0.334026"
       inkscape:tile-cx="841.30353"
       inkscape:tile-cy="639.31785"
       inkscape:tile-w="153"
       inkscape:tile-h="153" /><use
       x="0"
       y="0"
       inkscape:tiled-clone-of="#use7068"
       xlink:href="#use7068"
       id="use7074" /></g></svg>
